<?xml version="1.0" encoding="UTF-8" standalone="no"?>
<!-- Created with Inkscape (http://www.inkscape.org/) -->

<svg
   xmlns:osb="http://www.openswatchbook.org/uri/2009/osb"
   xmlns:dc="http://purl.org/dc/elements/1.1/"
   xmlns:cc="http://creativecommons.org/ns#"
   xmlns:rdf="http://www.w3.org/1999/02/22-rdf-syntax-ns#"
   xmlns:svg="http://www.w3.org/2000/svg"
   xmlns="http://www.w3.org/2000/svg"
   xmlns:sodipodi="http://sodipodi.sourceforge.net/DTD/sodipodi-0.dtd"
   xmlns:inkscape="http://www.inkscape.org/namespaces/inkscape"
   width="210mm"
   height="297mm"
   viewBox="0 0 210 297"
   version="1.1"
   id="svg8"
   inkscape:version="0.92.4 (5da689c313, 2019-01-14)"
   sodipodi:docname="id-card.svg"
   inkscape:export-filename="D:\Public\CNIRevelator-master\CNIRevelator-master\id-card.ico.png"
   inkscape:export-xdpi="96"
   inkscape:export-ydpi="96">
  <defs
     id="defs2">
    <linearGradient
       id="linearGradient6642"
       osb:paint="solid">
      <stop
         style="stop-color:#006699;stop-opacity:1;"
         offset="0"
         id="stop6640" />
    </linearGradient>
    <linearGradient
       inkscape:collect="always"
       id="linearGradient6634"
       osb:paint="gradient">
      <stop
         style="stop-color:#006699;stop-opacity:1;"
         offset="0"
         id="stop6630" />
      <stop
         style="stop-color:#006699;stop-opacity:0;"
         offset="1"
         id="stop6632" />
    </linearGradient>
    <linearGradient
       inkscape:collect="always"
       id="linearGradient6624"
       osb:paint="gradient">
      <stop
         style="stop-color:#006699;stop-opacity:1;"
         offset="0"
         id="stop6620" />
      <stop
         style="stop-color:#006699;stop-opacity:0;"
         offset="1"
         id="stop6622" />
    </linearGradient>
    <meshgradient
       inkscape:collect="always"
       id="meshgradient6684"
       gradientUnits="userSpaceOnUse"
       x="21.469046"
       y="95.009521"
       gradientTransform="matrix(1.1362933,0,0,1.063401,-17.304581,-33.164658)">
      <meshrow
         id="meshrow8749">
        <meshpatch
           id="meshpatch8751">
          <stop
             path="c 84.9889,-0.489892  216.909,-47.2726  172.056,5.23565e-06"
             style="stop-color:#ffffff;stop-opacity:1"
             id="stop8753" />
          <stop
             path="c 0,35.0258  27.3277,78.3796  0,105.077"
             style="stop-color:#0066a3;stop-opacity:1"
             id="stop8755" />
          <stop
             path="c -57.3516,0  -114.704,0.000313733  -172.056,0.000374711"
             style="stop-color:#ffffff;stop-opacity:1"
             id="stop8757" />
          <stop
             path="c -109.31,-65.1529  0.000895128,-70.052  0,-105.077"
             style="stop-color:#0066a3;stop-opacity:1"
             id="stop8759" />
        </meshpatch>
      </meshrow>
    </meshgradient>
  </defs>
  <sodipodi:namedview
     id="base"
     pagecolor="#ffffff"
     bordercolor="#666666"
     borderopacity="1.0"
     inkscape:pageopacity="0.0"
     inkscape:pageshadow="2"
     inkscape:zoom="0.35"
     inkscape:cx="-117.14286"
     inkscape:cy="560"
     inkscape:document-units="mm"
     inkscape:current-layer="layer1"
     showgrid="false"
     inkscape:window-width="1920"
     inkscape:window-height="1021"
     inkscape:window-x="1358"
     inkscape:window-y="-8"
     inkscape:window-maximized="1" />
  <metadata
     id="metadata5">
    <rdf:RDF>
      <cc:Work
         rdf:about="">
        <dc:format>image/svg+xml</dc:format>
        <dc:type
           rdf:resource="http://purl.org/dc/dcmitype/StillImage" />
        <dc:title></dc:title>
      </cc:Work>
    </rdf:RDF>
  </metadata>
  <g
     inkscape:label="Calque 1"
     inkscape:groupmode="layer"
     id="layer1">
    <path
       style="fill:#006699;fill-opacity:0;stroke-width:0.28439415"
       d="m 84.721063,124.78009 v -18.1023 h 35.244247 35.24426 v 18.1023 18.1023 H 119.96531 84.721063 Z"
       id="path3715"
       inkscape:connector-curvature="0"
       inkscape:export-xdpi="96"
       inkscape:export-ydpi="96" />
    <path
       style="fill:#006699;fill-opacity:0;stroke-width:0.28439415"
       d="m 84.596851,124.78009 v -18.1023 h 35.399509 35.39952 v 18.1023 18.1023 H 119.99636 84.596851 Z"
       id="path4522"
       inkscape:connector-curvature="0"
       inkscape:export-xdpi="96"
       inkscape:export-ydpi="96" />
    <rect
       style="opacity:1;fill:url(#meshgradient6684);fill-opacity:1;fill-rule:evenodd;stroke-width:0.2908414"
       id="rect6026"
       width="195.50467"
       height="111.73937"
       x="7.0905566"
       y="67.868561"
       inkscape:export-xdpi="96"
       inkscape:export-ydpi="96" />
    <path
       style="opacity:1;fill:none;fill-opacity:0;stroke:none;stroke-width:0.10665803"
       id="path6702"
       sodipodi:type="arc"
       sodipodi:cx="-106.96722"
       sodipodi:cy="91.675934"
       sodipodi:rx="27.00486"
       sodipodi:ry="14.752526"
       sodipodi:start="0"
       sodipodi:end="0.01294104"
       d="m -79.962357,91.675934 a 27.00486,14.752526 0 0 1 -0.0023,0.190908 l -27.002602,-0.190908 z"
       inkscape:export-xdpi="96"
       inkscape:export-ydpi="96" />
    <path
       style="opacity:1;fill:none;fill-opacity:0;stroke:none;stroke-width:0.09953795"
       id="path6704"
       sodipodi:type="arc"
       sodipodi:cx="50.128902"
       sodipodi:cy="117.01824"
       sodipodi:rx="19.252365"
       sodipodi:ry="0.91162664"
       sodipodi:start="0"
       sodipodi:end="0.01294104"
       d="m 69.381268,117.01824 a 19.252365,0.91162664 0 0 1 -0.0016,0.0118 l -19.250753,-0.0118 z"
       inkscape:export-xdpi="96"
       inkscape:export-ydpi="96" />
    <path
       style="opacity:1;fill:#ffffff;fill-opacity:0.97927462;stroke:none;stroke-width:0.09953795"
       id="path6706"
       sodipodi:type="arc"
       sodipodi:cx="47.334206"
       sodipodi:cy="126.78566"
       sodipodi:rx="26.394371"
       sodipodi:ry="14.586026"
       sodipodi:start="3.1320091"
       sodipodi:end="0.019782596"
       d="m 20.941047,126.92544 a 26.394371,14.586026 0 0 1 13.200663,-12.77315 26.394371,14.586026 0 0 1 26.61746,0.075 26.394371,14.586026 0 0 1 12.964242,12.84688"
       sodipodi:open="true"
       inkscape:export-xdpi="96"
       inkscape:export-ydpi="96" />
    <path
       style="opacity:1;fill:#ffffff;fill-opacity:0.97927462;stroke:none;stroke-width:0.09953795"
       id="path6708"
       sodipodi:type="arc"
       sodipodi:cx="46.868427"
       sodipodi:cy="96.702003"
       sodipodi:rx="10.402489"
       sodipodi:ry="20.186018"
       sodipodi:start="2.4930839"
       sodipodi:end="0.65082534"
       sodipodi:open="true"
       d="m 38.577796,108.89433 a 10.402489,20.186018 0 0 1 1.284074,-27.112722 10.402489,20.186018 0 0 1 14.030908,0.03154 10.402489,20.186018 0 0 1 1.251703,27.118425"
       inkscape:export-xdpi="96"
       inkscape:export-ydpi="96" />
    <rect
       style="fill:#ffffff;fill-rule:evenodd;stroke-width:0.09308306"
       id="rect6714"
       width="90.982964"
       height="5.7302251"
       x="100.43346"
       y="87.195045"
       inkscape:export-xdpi="96"
       inkscape:export-ydpi="96" />
    <rect
       style="fill:#ffffff;fill-rule:evenodd;stroke-width:0.09517508"
       id="rect6714-6"
       width="90.982964"
       height="5.9906888"
       x="100.43346"
       y="-104.90665"
       transform="scale(1,-1)"
       inkscape:export-xdpi="96"
       inkscape:export-ydpi="96" />
    <rect
       style="fill:#ffffff;fill-rule:evenodd;stroke-width:0.08650398"
       id="rect6714-4"
       width="90.982964"
       height="4.9488306"
       x="100.744"
       y="-115.06476"
       transform="scale(1,-1)"
       inkscape:export-xdpi="96"
       inkscape:export-ydpi="96" />
    <rect
       style="fill:#ffffff;fill-rule:evenodd;stroke-width:0.08875122"
       id="rect6714-4-0"
       width="90.982964"
       height="5.2092953"
       x="100.744"
       y="120.53452"
       inkscape:export-xdpi="96"
       inkscape:export-ydpi="96" />
    <rect
       style="fill:#ffffff;fill-rule:evenodd;stroke-width:0.24659641"
       id="rect6714-4-0-9"
       width="180.10278"
       height="20.316252"
       x="13.332048"
       y="151.79028"
       inkscape:export-xdpi="96"
       inkscape:export-ydpi="96" />
    <path
       style="opacity:1;fill:#006699;fill-opacity:0;stroke:none;stroke-width:0.70548797"
       d="m 54.328279,151.38009 c 6.738287,-0.18153 9.860558,-0.51601 9.860558,-1.0563 0,-0.43485 -0.214401,-0.58316 -0.476446,-0.32955 -0.262045,0.2536 -1.220099,-0.70936 -2.129014,-2.13994 -0.908912,-1.43057 -1.662638,-2.39129 -1.67495,-2.13492 -0.0123,0.25635 -1.232541,-0.6806 -2.711623,-2.08211 -3.041003,-2.88151 -11.20904,-8.16141 -15.56345,-10.06037 -5.025034,-2.1914 -15.48499,-5.17516 -24.607335,-7.01935 -4.837953,-0.97804 -8.9524961,-1.77826 -9.1434291,-1.77826 -0.190932,0 -0.3471493,-3.90394 -0.3471493,-8.67542 0,-7.7854 0.128749,-8.67924 1.2549803,-8.71272 4.0321241,-0.11985 12.8335191,-0.78443 18.1075721,-1.36727 9.548641,-1.05522 9.999721,-0.99605 10.872131,1.42595 l 0.757679,2.10346 8.348445,-0.19488 8.348442,-0.19487 1.12821,-3.28965 c 0.620515,-1.8093 1.265931,-3.4125 1.434262,-3.56264 0.168331,-0.15015 2.042385,-0.47238 4.164565,-0.71606 2.122181,-0.24367 4.065255,-0.5667 4.317942,-0.71785 0.252685,-0.15114 1.797669,-0.46796 3.433295,-0.70405 4.289131,-0.619126 19.404432,-4.873023 24.662715,-6.940837 5.267804,-2.071562 5.679741,-2.120459 5.679741,-0.674222 0,0.98671 4.46405,1.055298 46.07569,0.708032 25.34165,-0.211474 45.33864,-0.156571 44.43778,0.122013 -1.47944,0.457514 -0.97636,1.00161 5.1992,5.623008 l 6.83714,5.116466 v 10.71956 c 0,9.89196 -0.0969,10.69004 -1.25498,10.33748 -1.128,-0.34341 -8.59991,-1.79357 -9.24131,-1.79357 -0.14338,0 -0.26068,-0.78079 -0.26068,-1.73508 v -1.73509 H 146.3004 100.76254 v 3.12315 3.12316 l 24.2032,0.0358 c 22.52599,0.0333 24.00441,0.1094 21.33466,1.09839 -10.57291,3.91663 -15.72347,6.59657 -20.82107,10.83365 -3.43941,2.85881 -5.35424,4.78609 -5.35424,5.38906 0,0.3784 -0.26817,0.688 -0.59594,0.688 -0.32778,0 -1.05387,0.85887 -1.61355,1.9086 -0.55968,1.04972 -1.39216,2.29341 -1.84998,2.76374 -0.45782,0.47033 -0.94972,1.1958 -1.09313,1.61215 -0.1823,0.52932 -10.82435,0.81596 -35.382744,0.95301 -19.317115,0.10781 -30.684777,0.0765 -25.261467,-0.0697 z m 19.536724,-24.5107 c 0.785136,-1.22945 -2.274815,-6.70861 -4.750306,-8.50591 -6.072977,-4.40923 -12.372723,-6.19003 -21.831412,-6.17126 -14.146328,0.0281 -23.792567,4.80423 -26.431687,13.08717 -0.488044,1.53174 -0.432748,1.54246 9.052578,1.75703 24.444874,0.55296 43.547386,0.48038 43.960827,-0.16703 z m 117.837267,-14.4092 -0.22258,-2.60262 -45.35858,-0.17869 -45.35857,-0.17868 v 2.78131 2.78131 h 45.58116 45.58114 z m -0.22258,-10.58401 v -3.123144 l -45.71714,-0.178641 -45.71713,-0.178649 v 3.480434 3.48045 l 45.71713,-0.17865 45.71714,-0.17864 z"
       id="path8763"
       inkscape:connector-curvature="0"
       inkscape:export-xdpi="96"
       inkscape:export-ydpi="96" />
    <path
       style="opacity:1;fill:#006699;fill-opacity:0;stroke:none;stroke-width:0.70548797"
       d="m 100.16596,112.80721 -0.12054,-2.60262 -7.350605,0.0226 c -4.042825,0.0125 -15.095617,0.32729 -24.561753,0.69967 -9.466139,0.37238 -26.973114,0.85132 -38.90439,1.06432 l -21.6932314,0.38725 v -6.50485 -6.504868 l 9.5019934,-1.239163 c 5.226096,-0.681544 11.680281,-1.630765 14.342631,-2.109373 l 4.840639,-0.870217 0.06885,3.189611 c 0.03787,1.75427 0.443033,4.75117 0.900383,6.65976 l 0.83154,3.47017 8.661056,0.19394 8.661056,0.19394 0.944402,-2.97008 c 0.519425,-1.63353 1.013139,-5.76662 1.097147,-9.184628 0.144724,-5.888493 0.242562,-6.24101 1.864677,-6.718555 0.941564,-0.2772 4.61632,-1.349587 8.166119,-2.383112 C 80.69971,83.733484 97.128366,76.646908 106.55855,70.716662 l 4.52902,-2.84811 h 18.90595 18.90596 l -2.18965,2.949639 c -1.2043,1.622303 -4.45144,5.691589 -7.21587,9.042856 -2.76443,3.351263 -5.02623,6.236327 -5.02623,6.411256 0,0.17492 11.6982,0.410435 25.99602,0.523367 15.74964,0.124401 9.0365,0.238497 -17.03188,0.289492 l -43.0279,0.0841 -0.22051,2.842206 -0.220517,2.842218 38.228487,0.164089 c 29.94874,0.128546 32.94759,0.209257 13.84602,0.372641 l -24.38247,0.20856 -1.79283,2.372666 -1.79283,2.372666 -11.83267,0.20433 -11.83268,0.204329 v 3.123153 3.12315 l 8.85258,0.34701 8.85259,0.34701 -1.54912,1.90255 -1.5491,1.90254 38.59295,0.18571 38.59295,0.18573 -45.67384,0.16734 -45.67386,0.16736 -0.28129,2.60263 -0.28131,2.60262 z"
       id="path8765"
       inkscape:connector-curvature="0"
       inkscape:export-xdpi="96"
       inkscape:export-ydpi="96" />
    <path
       style="opacity:1;fill:#006699;fill-opacity:1;stroke:none;stroke-width:0.70548797"
       d="m 46.260547,151.18011 c 6.845288,-0.23067 10.509758,-0.58818 9.538676,-0.9306 -0.867274,-0.30581 -1.771231,-1.1487 -2.008795,-1.87309 -0.237562,-0.72438 -1.031972,-1.50138 -1.765357,-1.72665 -0.733383,-0.22527 -1.860536,-1.18814 -2.504783,-2.13971 -0.644247,-0.95158 -1.446074,-1.56582 -1.781839,-1.36499 -0.335764,0.20083 -0.781784,-0.0669 -0.99115,-0.59492 -0.209371,-0.52803 -1.856732,-1.50561 -3.660803,-2.1724 -1.804075,-0.66679 -3.280134,-1.48223 -3.280134,-1.81208 0,-0.32987 -0.645419,-0.59975 -1.434262,-0.59975 -0.788846,0 -1.434264,-0.31232 -1.434264,-0.69403 0,-0.38173 -0.645419,-0.69404 -1.434262,-0.69404 -0.788845,0 -1.434264,-0.31232 -1.434264,-0.69403 0,-0.38172 -0.806774,-0.69403 -1.79283,-0.69403 -0.986055,0 -1.792827,-0.27843 -1.792827,-0.61871 0,-0.34029 -2.097611,-1.02222 -4.661357,-1.51539 -2.563745,-0.49318 -4.661356,-1.11107 -4.661356,-1.3731 0,-0.26203 -2.016932,-0.84615 -4.482072,-1.29806 -2.465139,-0.45191 -5.530877,-1.14139 -6.8127501,-1.53219 l -2.3306773,-0.71053 v -9.31564 -9.31561 l 2.6892434,-0.11141 c 1.479084,-0.0613 4.786853,-0.18304 7.350599,-0.2706 2.563745,-0.0875 7.565738,-0.37873 11.11554,-0.64704 8.182084,-0.61844 9.245015,-0.58461 9.551132,0.30417 0.154777,0.44938 3.475972,0.72488 8.738504,0.72488 h 8.488837 l 0.455323,-2.00629 c 0.338232,-1.49037 0.860017,-1.99471 2.029089,-1.9613 1.435188,0.041 5.980156,-0.48121 10.537919,-1.21083 0.986055,-0.15784 2.922309,-0.46481 4.302787,-0.68215 1.380479,-0.21735 3.15538,-0.54063 3.944226,-0.71842 0.788845,-0.1778 2.402391,-0.50427 3.585657,-0.72554 6.732547,-1.25886 9.799885,-2.05311 11.670262,-3.021856 0.878174,-0.454847 1.596673,-0.65182 1.596673,-0.437738 0,0.214099 0.968131,-0.09525 2.151393,-0.687431 1.183272,-0.592177 2.151388,-0.887046 2.151388,-0.655261 0,0.231803 1.12949,-0.254119 2.509957,-1.079823 1.38048,-0.825703 2.50997,-1.283727 2.50997,-1.017843 0,0.265901 0.72609,0.02684 1.61355,-0.53114 1.34621,-0.846491 8.67964,-1.095649 44.26354,-1.503867 29.86524,-0.34262 42.79682,-0.719236 43.13985,-1.256391 0.29842,-0.467309 2.47799,1.172307 5.57711,4.195511 l 5.08724,4.962619 v 10.80895 c 0,9.97298 -0.097,10.78025 -1.25498,10.43773 -4.81778,-1.42515 -10.59087,-2.60228 -14.88048,-3.03413 -6.37719,-0.642 -22.24626,-0.65315 -28.3267,-0.0199 -2.56375,0.267 -16.52091,0.50124 -31.01594,0.52053 l -26.35459,0.0351 v 3.12316 3.12315 l 15.23905,0.0307 15.23905,0.0306 -2.86852,1.45919 c -5.69947,2.89924 -11.95629,8.28587 -14.55841,12.53364 -0.64304,1.04973 -1.4223,1.90859 -1.73168,1.90859 -0.30938,0 -0.56252,0.44316 -0.56252,0.98481 0,1.15809 -2.26844,5.50463 -3.0478,5.83985 -0.29582,0.12724 -0.53785,0.62431 -0.53785,1.1046 0,1.1616 -20.747682,1.83599 -50.493813,1.64126 -17.607369,-0.11526 -19.957929,-0.2247 -11.1795,-0.52052 z m 27.968132,-24.34102 c 0,-1.43816 -2.260953,-5.90074 -3.799169,-7.49867 -2.116871,-2.19901 -8.569,-5.26921 -13.382949,-6.36817 -5.019831,-1.14595 -14.400801,-1.14595 -19.420635,0 -4.813948,1.09896 -11.266077,4.16916 -13.382949,6.36817 -1.341218,1.39328 -3.799168,6.00716 -3.799168,7.13152 0,0.40937 12.158464,0.7207 36.39443,0.93192 11.577474,0.1009 17.39044,-0.0879 17.39044,-0.56477 z m 117.609581,-14.5524 v -2.77613 H 146.3004 100.76254 v 2.77613 2.77613 h 45.53786 45.53786 z m -0.14,-10.237 -0.21857,-3.296654 -45.71714,-0.178641 -45.71713,-0.178649 v 3.475304 3.4753 h 45.93571 45.93571 z"
       id="path8767"
       inkscape:connector-curvature="0"
       inkscape:export-xdpi="96"
       inkscape:export-ydpi="96" />
    <rect
       style="fill:none;fill-rule:evenodd;stroke-width:0.26252428"
       id="rect8795"
       width="211.66666"
       height="192.01192"
       x="0"
       y="25.613092"
       inkscape:export-xdpi="96"
       inkscape:export-ydpi="96" />
  </g>
</svg>
