<?xml version="1.0" encoding="UTF-8" standalone="no"?>
<!-- Created with Inkscape (http://www.inkscape.org/) -->

<svg
   xmlns:osb="http://www.openswatchbook.org/uri/2009/osb"
   xmlns:dc="http://purl.org/dc/elements/1.1/"
   xmlns:cc="http://creativecommons.org/ns#"
   xmlns:rdf="http://www.w3.org/1999/02/22-rdf-syntax-ns#"
   xmlns:svg="http://www.w3.org/2000/svg"
   xmlns="http://www.w3.org/2000/svg"
   xmlns:xlink="http://www.w3.org/1999/xlink"
   xmlns:sodipodi="http://sodipodi.sourceforge.net/DTD/sodipodi-0.dtd"
   xmlns:inkscape="http://www.inkscape.org/namespaces/inkscape"
   width="210mm"
   height="297mm"
   viewBox="0 0 210 297"
   version="1.1"
   id="svg8"
   inkscape:version="0.92.4 (5da689c313, 2019-01-14)"
   sodipodi:docname="background.svg"
   inkscape:export-filename="D:\Public\CNIRevelator-master\CNIRevelator-master\id-card.ico.png"
   inkscape:export-xdpi="96"
   inkscape:export-ydpi="96">
  <defs
     id="defs2">
    <linearGradient
       inkscape:collect="always"
       id="linearGradient2382">
      <stop
         style="stop-color:#006699;stop-opacity:1;"
         offset="0"
         id="stop2378" />
      <stop
         style="stop-color:#006699;stop-opacity:0;"
         offset="1"
         id="stop2380" />
    </linearGradient>
    <linearGradient
       id="linearGradient2360"
       osb:paint="solid">
      <stop
         style="stop-color:#006699;stop-opacity:1;"
         offset="0"
         id="stop2358" />
    </linearGradient>
    <linearGradient
       id="linearGradient6642"
       osb:paint="solid">
      <stop
         style="stop-color:#006699;stop-opacity:1;"
         offset="0"
         id="stop6640" />
    </linearGradient>
    <linearGradient
       id="linearGradient6634"
       osb:paint="gradient">
      <stop
         style="stop-color:#006699;stop-opacity:1;"
         offset="0"
         id="stop6630" />
      <stop
         style="stop-color:#006699;stop-opacity:0;"
         offset="1"
         id="stop6632" />
    </linearGradient>
    <linearGradient
       id="linearGradient6624"
       osb:paint="gradient">
      <stop
         style="stop-color:#006699;stop-opacity:1;"
         offset="0"
         id="stop6620" />
      <stop
         style="stop-color:#006699;stop-opacity:0;"
         offset="1"
         id="stop6622" />
    </linearGradient>
    <meshgradient
       inkscape:collect="always"
       id="meshgradient6684"
       gradientUnits="userSpaceOnUse"
       x="21.469046"
       y="95.009521"
       gradientTransform="matrix(1.1362933,0,0,1.063401,-17.304581,-33.164658)">
      <meshrow
         id="meshrow8749">
        <meshpatch
           id="meshpatch8751">
          <stop
             path="c 84.9889,-0.489892  216.909,-47.2726  172.056,5.23565e-06"
             style="stop-color:#ffffff;stop-opacity:1"
             id="stop8753" />
          <stop
             path="c 0,35.0258  27.3277,78.3796  0,105.077"
             style="stop-color:#0066a3;stop-opacity:1"
             id="stop8755" />
          <stop
             path="c -57.3516,0  -114.704,0.000313733  -172.056,0.000374711"
             style="stop-color:#ffffff;stop-opacity:1"
             id="stop8757" />
          <stop
             path="c -109.31,-65.1529  0.000895128,-70.052  0,-105.077"
             style="stop-color:#0066a3;stop-opacity:1"
             id="stop8759" />
        </meshpatch>
      </meshrow>
    </meshgradient>
    <radialGradient
       inkscape:collect="always"
       xlink:href="#linearGradient2382"
       id="radialGradient2384"
       cx="396.2852"
       cy="468.11764"
       fx="396.2852"
       fy="468.11764"
       r="369.64817"
       gradientTransform="matrix(1,0,0,0.56950675,0,201.52149)"
       gradientUnits="userSpaceOnUse" />
  </defs>
  <sodipodi:namedview
     id="base"
     pagecolor="#ffffff"
     bordercolor="#666666"
     borderopacity="1.0"
     inkscape:pageopacity="0.0"
     inkscape:pageshadow="2"
     inkscape:zoom="0.35"
     inkscape:cx="-154.28572"
     inkscape:cy="560"
     inkscape:document-units="mm"
     inkscape:current-layer="layer1"
     showgrid="false"
     inkscape:window-width="1920"
     inkscape:window-height="1021"
     inkscape:window-x="1358"
     inkscape:window-y="-8"
     inkscape:window-maximized="1" />
  <metadata
     id="metadata5">
    <rdf:RDF>
      <cc:Work
         rdf:about="">
        <dc:format>image/svg+xml</dc:format>
        <dc:type
           rdf:resource="http://purl.org/dc/dcmitype/StillImage" />
        <dc:title></dc:title>
      </cc:Work>
    </rdf:RDF>
  </metadata>
  <g
     inkscape:label="Calque 1"
     inkscape:groupmode="layer"
     id="layer1">
    <path
       style="fill:#006699;fill-opacity:0;stroke-width:0.28439415"
       d="m 84.721063,124.78009 v -18.1023 h 35.244247 35.24426 v 18.1023 18.1023 H 119.96531 84.721063 Z"
       id="path3715"
       inkscape:connector-curvature="0"
       inkscape:export-xdpi="62.28421"
       inkscape:export-ydpi="62.28421" />
    <path
       style="fill:#006699;fill-opacity:0;stroke-width:0.28439415"
       d="m 84.596851,124.78009 v -18.1023 h 35.399509 35.39952 v 18.1023 18.1023 H 119.99636 84.596851 Z"
       id="path4522"
       inkscape:connector-curvature="0"
       inkscape:export-xdpi="62.28421"
       inkscape:export-ydpi="62.28421" />
    <rect
       style="opacity:1;fill:url(#meshgradient6684);fill-opacity:1;fill-rule:evenodd;stroke-width:0.2908414"
       id="rect6026"
       width="195.50467"
       height="111.73937"
       x="7.0905566"
       y="67.868561"
       inkscape:export-xdpi="62.28421"
       inkscape:export-ydpi="62.28421" />
    <path
       style="opacity:1;fill:none;fill-opacity:0;stroke:none;stroke-width:0.10665803"
       id="path6702"
       sodipodi:type="arc"
       sodipodi:cx="-106.96722"
       sodipodi:cy="91.675934"
       sodipodi:rx="27.00486"
       sodipodi:ry="14.752526"
       sodipodi:start="0"
       sodipodi:end="0.01294104"
       d="m -79.962357,91.675934 a 27.00486,14.752526 0 0 1 -0.0023,0.190908 l -27.002602,-0.190908 z"
       inkscape:export-xdpi="96"
       inkscape:export-ydpi="96" />
    <path
       style="opacity:1;fill:none;fill-opacity:0;stroke:none;stroke-width:0.09953795"
       id="path6704"
       sodipodi:type="arc"
       sodipodi:cx="50.128902"
       sodipodi:cy="117.01824"
       sodipodi:rx="19.252365"
       sodipodi:ry="0.91162664"
       sodipodi:start="0"
       sodipodi:end="0.01294104"
       d="m 69.381268,117.01824 a 19.252365,0.91162664 0 0 1 -0.0016,0.0118 l -19.250753,-0.0118 z"
       inkscape:export-xdpi="62.28421"
       inkscape:export-ydpi="62.28421" />
    <path
       style="opacity:1;fill:#006699;fill-opacity:0;stroke:none;stroke-width:0.70548797"
       d="m 54.328279,151.38009 c 6.738287,-0.18153 9.860558,-0.51601 9.860558,-1.0563 0,-0.43485 -0.214401,-0.58316 -0.476446,-0.32955 -0.262045,0.2536 -1.220099,-0.70936 -2.129014,-2.13994 -0.908912,-1.43057 -1.662638,-2.39129 -1.67495,-2.13492 -0.0123,0.25635 -1.232541,-0.6806 -2.711623,-2.08211 -3.041003,-2.88151 -11.20904,-8.16141 -15.56345,-10.06037 -5.025034,-2.1914 -15.48499,-5.17516 -24.607335,-7.01935 -4.837953,-0.97804 -8.9524961,-1.77826 -9.1434291,-1.77826 -0.190932,0 -0.3471493,-3.90394 -0.3471493,-8.67542 0,-7.7854 0.128749,-8.67924 1.2549803,-8.71272 4.0321241,-0.11985 12.8335191,-0.78443 18.1075721,-1.36727 9.548641,-1.05522 9.999721,-0.99605 10.872131,1.42595 l 0.757679,2.10346 8.348445,-0.19488 8.348442,-0.19487 1.12821,-3.28965 c 0.620515,-1.8093 1.265931,-3.4125 1.434262,-3.56264 0.168331,-0.15015 2.042385,-0.47238 4.164565,-0.71606 2.122181,-0.24367 4.065255,-0.5667 4.317942,-0.71785 0.252685,-0.15114 1.797669,-0.46796 3.433295,-0.70405 4.289131,-0.619126 19.404432,-4.873023 24.662715,-6.940837 5.267804,-2.071562 5.679741,-2.120459 5.679741,-0.674222 0,0.98671 4.46405,1.055298 46.07569,0.708032 25.34165,-0.211474 45.33864,-0.156571 44.43778,0.122013 -1.47944,0.457514 -0.97636,1.00161 5.1992,5.623008 l 6.83714,5.116466 v 10.71956 c 0,9.89196 -0.0969,10.69004 -1.25498,10.33748 -1.128,-0.34341 -8.59991,-1.79357 -9.24131,-1.79357 -0.14338,0 -0.26068,-0.78079 -0.26068,-1.73508 v -1.73509 H 146.3004 100.76254 v 3.12315 3.12316 l 24.2032,0.0358 c 22.52599,0.0333 24.00441,0.1094 21.33466,1.09839 -10.57291,3.91663 -15.72347,6.59657 -20.82107,10.83365 -3.43941,2.85881 -5.35424,4.78609 -5.35424,5.38906 0,0.3784 -0.26817,0.688 -0.59594,0.688 -0.32778,0 -1.05387,0.85887 -1.61355,1.9086 -0.55968,1.04972 -1.39216,2.29341 -1.84998,2.76374 -0.45782,0.47033 -0.94972,1.1958 -1.09313,1.61215 -0.1823,0.52932 -10.82435,0.81596 -35.382744,0.95301 -19.317115,0.10781 -30.684777,0.0765 -25.261467,-0.0697 z m 19.536724,-24.5107 c 0.785136,-1.22945 -2.274815,-6.70861 -4.750306,-8.50591 -6.072977,-4.40923 -12.372723,-6.19003 -21.831412,-6.17126 -14.146328,0.0281 -23.792567,4.80423 -26.431687,13.08717 -0.488044,1.53174 -0.432748,1.54246 9.052578,1.75703 24.444874,0.55296 43.547386,0.48038 43.960827,-0.16703 z m 117.837267,-14.4092 -0.22258,-2.60262 -45.35858,-0.17869 -45.35857,-0.17868 v 2.78131 2.78131 h 45.58116 45.58114 z m -0.22258,-10.58401 v -3.123144 l -45.71714,-0.178641 -45.71713,-0.178649 v 3.480434 3.48045 l 45.71713,-0.17865 45.71714,-0.17864 z"
       id="path8763"
       inkscape:connector-curvature="0"
       inkscape:export-xdpi="62.28421"
       inkscape:export-ydpi="62.28421" />
    <path
       style="opacity:1;fill:#006699;fill-opacity:0;stroke:none;stroke-width:0.70548797"
       d="m 100.16596,112.80721 -0.12054,-2.60262 -7.350605,0.0226 c -4.042825,0.0125 -15.095617,0.32729 -24.561753,0.69967 -9.466139,0.37238 -26.973114,0.85132 -38.90439,1.06432 l -21.6932314,0.38725 v -6.50485 -6.504868 l 9.5019934,-1.239163 c 5.226096,-0.681544 11.680281,-1.630765 14.342631,-2.109373 l 4.840639,-0.870217 0.06885,3.189611 c 0.03787,1.75427 0.443033,4.75117 0.900383,6.65976 l 0.83154,3.47017 8.661056,0.19394 8.661056,0.19394 0.944402,-2.97008 c 0.519425,-1.63353 1.013139,-5.76662 1.097147,-9.184628 0.144724,-5.888493 0.242562,-6.24101 1.864677,-6.718555 0.941564,-0.2772 4.61632,-1.349587 8.166119,-2.383112 C 80.69971,83.733484 97.128366,76.646908 106.55855,70.716662 l 4.52902,-2.84811 h 18.90595 18.90596 l -2.18965,2.949639 c -1.2043,1.622303 -4.45144,5.691589 -7.21587,9.042856 -2.76443,3.351263 -5.02623,6.236327 -5.02623,6.411256 0,0.17492 11.6982,0.410435 25.99602,0.523367 15.74964,0.124401 9.0365,0.238497 -17.03188,0.289492 l -43.0279,0.0841 -0.22051,2.842206 -0.220517,2.842218 38.228487,0.164089 c 29.94874,0.128546 32.94759,0.209257 13.84602,0.372641 l -24.38247,0.20856 -1.79283,2.372666 -1.79283,2.372666 -11.83267,0.20433 -11.83268,0.204329 v 3.123153 3.12315 l 8.85258,0.34701 8.85259,0.34701 -1.54912,1.90255 -1.5491,1.90254 38.59295,0.18571 38.59295,0.18573 -45.67384,0.16734 -45.67386,0.16736 -0.28129,2.60263 -0.28131,2.60262 z"
       id="path8765"
       inkscape:connector-curvature="0"
       inkscape:export-xdpi="62.28421"
       inkscape:export-ydpi="62.28421" />
    <rect
       style="fill:none;fill-rule:evenodd;stroke-width:0.26252428"
       id="rect8795"
       width="211.66666"
       height="192.01192"
       x="0"
       y="25.613092"
       inkscape:export-xdpi="96"
       inkscape:export-ydpi="96" />
    <path
       style="stroke-width:2.85714293;fill:url(#radialGradient2384);fill-opacity:1"
       d="m 327.53554,676.44371 c 17.57689,-1.4528 19.34434,-2.1236 15.60946,-5.92402 -2.31646,-2.35715 -9.95032,-12.63463 -16.96412,-22.83889 -7.01377,-10.20423 -14.90228,-20.94643 -17.53,-23.87154 -2.62772,-2.92512 -6.31942,-9.04046 -8.20377,-13.58969 -1.88435,-4.54923 -4.55582,-8.27131 -5.9366,-8.27131 -1.38078,0 -2.51051,-2.2876 -2.51051,-5.08355 0,-2.79594 -2.57143,-6.93691 -5.71429,-9.20217 -3.14286,-2.26525 -5.71428,-5.8218 -5.71428,-7.90345 0,-2.08169 -3.21429,-6.99915 -7.14286,-10.92772 -3.92857,-3.92857 -7.14286,-8.4244 -7.14286,-9.99071 0,-6.09009 -40.33587,-47.06195 -55.01673,-55.88422 -34.19795,-20.55081 -80.77342,-32.34706 -167.126126,-42.32833 l -15,-1.73381 -0.581558,42.24126 c -0.409107,29.71536 -0.898633,35.03976 -1.650835,17.95555 -0.588103,-13.35714 -0.195722,-46.2837 0.871956,-73.17012 l 1.941234,-48.88442 27.388795,-1.92524 c 64.814594,-4.55601 146.518134,-17.28486 203.458984,-31.6975 90.3622,-22.87212 145.61422,-46.66066 200.94522,-86.51618 l 25.23098,-18.17412 107.62617,-0.84172 c 59.19443,-0.46295 92.64054,-0.34165 74.32474,0.26956 l -33.30146,1.11129 -0.99308,14.72469 c -1.74083,25.81205 9.47623,54.65464 26.03854,66.95335 2.42803,1.80299 7.46017,5.94339 11.18254,9.20089 3.72237,3.2575 9.18666,6.6904 12.14286,7.62866 2.9562,0.93827 5.37491,2.90501 5.37491,4.37054 0,1.46554 1.08826,2.66461 2.41838,2.66461 2.52662,0 48.26877,26.3865 53.37017,30.78676 1.61228,1.39067 6.43371,4.82329 10.71428,7.62804 l 7.78289,5.09954 0.62671,-68.18574 c 0.45615,-49.62888 0.90106,-57.29967 1.63486,-28.18574 0.55449,22 0.12829,69.90005 -0.94689,106.44455 l -1.95508,66.44456 -17.53694,-2.00253 c -19.89995,-2.27237 -61.31123,-2.85877 -84.6798,-1.19911 -37.85563,2.68855 -120.12878,26.68601 -134.51069,39.23412 -2.48089,2.16456 -5.37077,3.93555 -6.42197,3.93555 -7.82706,0 -51.76997,39.08254 -54.8484,48.7818 -0.96077,3.02714 -2.94594,5.50391 -4.41149,5.50391 -1.46551,0 -2.6646,1.92858 -2.6646,4.28572 0,2.35714 -1.28571,4.28571 -2.85714,4.28571 -1.57143,0 -2.85714,3.85715 -2.85714,8.57143 0,5.52234 -1.45143,8.57143 -4.08012,8.57143 -4.83474,0 -8.73463,23.07814 -8.74908,51.77374 l -0.009,18.91663 -22.86635,1.78054 c -12.57648,0.97932 -42.15205,1.56123 -65.72348,1.29315 -31.42752,-0.35743 -37.571,-0.92435 -23.03589,-2.12575 z"
       id="path82"
       inkscape:connector-curvature="0"
       transform="scale(0.26458333)"
       inkscape:export-xdpi="62.28421"
       inkscape:export-ydpi="62.28421" />
  </g>
</svg>
